<svg width="19" height="18" viewBox="0 0 19 18" fill="none" xmlns="http://www.w3.org/2000/svg">
<path d="M2.25656 12.5864H7.30872L6.29775 15.6175C6.1159 16.1648 6.20773 16.7716 6.54532 17.2397C6.88291 17.7079 7.43026 17.9878 8.00731 17.9878H9.4585C9.72588 17.9878 9.97885 17.869 10.1508 17.6638L14.3819 12.5864H16.6605C17.6534 12.5864 18.4609 11.7789 18.4609 10.7859V2.6837C18.4609 1.69073 17.6534 0.883215 16.6605 0.883215H4.68091C4.31462 0.884432 3.95731 0.99679 3.65624 1.20543C3.35517 1.41408 3.12451 1.70918 2.99476 2.05173L0.512787 8.66942C0.475101 8.7705 0.455893 8.87753 0.456072 8.9854V10.7859C0.456072 11.7789 1.26359 12.5864 2.25656 12.5864ZM16.6605 10.7859H14.86V2.6837H16.6605V10.7859ZM2.25656 9.14835L4.68091 2.6837H13.0595V11.3602L9.03719 16.1874H8.00551L9.41169 11.9715C9.45734 11.8362 9.47007 11.6919 9.44883 11.5507C9.4276 11.4095 9.373 11.2754 9.28956 11.1595C9.20613 11.0435 9.09627 10.9492 8.96909 10.8842C8.84191 10.8193 8.70107 10.7856 8.55826 10.7859H2.25656V9.14835Z" fill="#A72614"/>
</svg>
