<svg width="19" height="20" viewBox="0 0 19 20" fill="none" xmlns="http://www.w3.org/2000/svg">
<path d="M7.92791 0.725002L1.27866 5.71194C0.724553 6.13306 0.39209 6.7869 0.39209 7.48508V17.459C0.39209 18.678 1.38948 19.6754 2.60851 19.6754H15.907C17.126 19.6754 18.1234 18.678 18.1234 17.459V7.48508C18.1234 6.7869 17.791 6.13306 17.2369 5.71194L10.5876 0.725002C10.2032 0.438957 9.73689 0.28447 9.25776 0.28447C8.77864 0.28447 8.31228 0.438957 7.92791 0.725002ZM9.81187 10.2556C9.81187 11.1754 9.06937 11.9179 8.14955 11.9179V15.7966C8.14955 16.1069 7.90575 16.3507 7.59545 16.3507C7.28515 16.3507 7.04134 16.1069 7.04134 15.7966V11.9179C6.12153 11.9179 5.37903 11.1754 5.37903 10.2556V7.48508C5.37903 7.17478 5.62284 6.93097 5.93313 6.93097C6.24343 6.93097 6.48724 7.17478 6.48724 7.48508V10.2556H7.04134V7.48508C7.04134 7.17478 7.28515 6.93097 7.59545 6.93097C7.90575 6.93097 8.14955 7.17478 8.14955 7.48508V10.2556H8.70366V7.48508C8.70366 7.17478 8.94746 6.93097 9.25776 6.93097C9.56806 6.93097 9.81187 7.17478 9.81187 7.48508V10.2556ZM12.0283 16.3507C11.718 16.3507 11.4742 16.1069 11.4742 15.7966V12.472H10.9201C10.6098 12.472 10.366 12.2282 10.366 11.9179V9.14739C10.366 8.17217 10.9976 7.34101 11.8731 7.05287C12.2167 6.93097 12.5824 7.20802 12.5824 7.58482V15.7966C12.5824 16.1069 12.3386 16.3507 12.0283 16.3507Z" fill="#A72614"/>
</svg>
