<svg width="19" height="18" viewBox="0 0 19 18" fill="none" xmlns="http://www.w3.org/2000/svg">
<path d="M16.5852 5.83455H11.5331L12.544 2.80343C12.7259 2.25608 12.6341 1.64932 12.2965 1.18119C11.9589 0.713066 11.4115 0.43309 10.8345 0.43309H9.38329C9.11592 0.43309 8.86295 0.551922 8.691 0.757178L4.45986 5.83455H2.18135C1.18838 5.83455 0.380859 6.64207 0.380859 7.63504V15.7372C0.380859 16.7302 1.18838 17.5377 2.18135 17.5377H14.1609C14.5272 17.5365 14.8845 17.4241 15.1856 17.2155C15.4866 17.0069 15.7173 16.7117 15.847 16.3692L18.329 9.75151C18.3667 9.65043 18.3859 9.5434 18.3857 9.43552V7.63504C18.3857 6.64207 17.5782 5.83455 16.5852 5.83455ZM2.18135 7.63504H3.98183V15.7372H2.18135V7.63504ZM16.5852 9.27258L14.1609 15.7372H5.78232V7.06068L9.80461 2.23358H10.8363L9.43011 6.44942C9.38446 6.58474 9.37172 6.72899 9.39296 6.87021C9.4142 7.01144 9.4688 7.14557 9.55223 7.26147C9.63567 7.37738 9.74553 7.47173 9.87271 7.5367C9.99989 7.60166 10.1407 7.63537 10.2835 7.63504H16.5852V9.27258Z" fill="#0F4F09"/>
</svg>
